{"asset":{"copyright":"","generator":"Aspose GLTF","version":"2.0"},"accessors":[{"name":"POSITION","bufferView":0,"componentType":5126,"count":77484,"max":[0.516871988773346,1.0073020458221436,0.9563930034637451],"min":[-0.5189189910888672,-1.0025650262832642,-0.9609590172767639],"type":"VEC3"},{"bufferView":1,"componentType":5125,"count":464925,"type":"SCALAR"}],"bufferViews":[{"buffer":0,"byteLength":929808,"byteOffset":1859700,"byteStride":12,"target":34962},{"buffer":0,"byteLength":1859700,"target":34963}],"buffers":[{"byteLength":2789508,"uri":"model.bin"}],"materials":[{"name":"mat000000","pbrMetallicRoughness":{"baseColorFactor":[0.0,0.0,0.0,1.0]}}],"meshes":[{"name":"mesh","primitives":[{"attributes":{"POSITION":0},"indices":1,"material":0}]}],"nodes":[{"mesh":0}],"scenes":[{"name":"Default","nodes":[0]}]}