{
  "accessors": [
    {
      "bufferView": 2,
      "componentType": 5126,
      "count": 4160,
      "max": [
        13.2791109085083,
        40.42887878417969,
        62.4537353515625
      ],
      "min": [
        -14.710212707519531,
        28.159738540649414,
        54.58497619628906
      ],
      "type": "VEC3"
    },
    {
      "bufferView": 2,
      "byteOffset": 49920,
      "componentType": 5126,
      "count": 4160,
      "max": [
        0.9944596886634827,
        0.9998864531517029,
        0.9984986186027527
      ],
      "min": [
        -0.8902685046195984,
        -0.9984877705574036,
        -0.9992688894271851
      ],
      "type": "VEC3"
    },
    {
      "bufferView": 1,
      "componentType": 5126,
      "count": 4160,
      "max": [
        1.0,
        1.0
      ],
      "min": [
        0.0,
        0.0
      ],
      "type": "VEC2"
    },
    {
      "bufferView": 0,
      "componentType": 5125,
      "count": 17280,
      "type": "SCALAR"
    },
    {
      "bufferView": 2,
      "byteOffset": 99840,
      "componentType": 5126,
      "count": 2954,
      "max": [
        1557.132568359375,
        4740.1943359375,
        6581.38720703125
      ],
      "min": [
        -1557.132568359375,
        43.76854705810547,
        -8135.40283203125
      ],
      "type": "VEC3"
    },
    {
      "bufferView": 2,
      "byteOffset": 135288,
      "componentType": 5126,
      "count": 2954,
      "max": [
        0.9998195767402649,
        0.9982715845108032,
        0.9997509121894836
      ],
      "min": [
        -0.9998195767402649,
        -0.9999331831932068,
        -0.9983625411987305
      ],
      "type": "VEC3"
    },
    {
      "bufferView": 3,
      "componentType": 5126,
      "count": 2954,
      "max": [
        1.0,
        0.9998317956924438,
        0.999690055847168,
        1.0
      ],
      "min": [
        -1.0,
        -0.9995921850204468,
        -0.9995694160461426,
        -1.0
      ],
      "type": "VEC4"
    },
    {
      "bufferView": 1,
      "byteOffset": 33280,
      "componentType": 5126,
      "count": 2954,
      "max": [
        0.9485700130462646,
        0.986548662185669
      ],
      "min": [
        0.06177067384123802,
        0.04954087734222412
      ],
      "type": "VEC2"
    },
    {
      "bufferView": 1,
      "byteOffset": 56912,
      "componentType": 5126,
      "count": 2954,
      "max": [
        0.9485700130462646,
        0.986548662185669
      ],
      "min": [
        0.06177067384123802,
        0.04954087734222412
      ],
      "type": "VEC2"
    },
    {
      "bufferView": 1,
      "byteOffset": 80544,
      "componentType": 5126,
      "count": 2954,
      "max": [
        0.9485700130462646,
        0.986548662185669
      ],
      "min": [
        0.06177067384123802,
        0.04954087734222412
      ],
      "type": "VEC2"
    },
    {
      "bufferView": 0,
      "byteOffset": 69120,
      "componentType": 5125,
      "count": 14670,
      "type": "SCALAR"
    }
  ],
  "asset": {
    "extras": {
      "author": "OCTOPUS (https://sketchfab.com/iqvi)",
      "license": "CC-BY-4.0 (http://creativecommons.org/licenses/by/4.0/)",
      "source": "https://sketchfab.com/3d-models/chungungo-lontra-felina-4c54c34b193b4fe78fe1643bb8fb0ab7",
      "title": "Chungungo - Lontra felina"
    },
    "generator": "Sketchfab-12.65.0",
    "version": "2.0"
  },
  "bufferViews": [
    {
      "buffer": 0,
      "byteLength": 127800,
      "name": "floatBufferViews",
      "target": 34963
    },
    {
      "buffer": 0,
      "byteLength": 104176,
      "byteOffset": 127800,
      "byteStride": 8,
      "name": "floatBufferViews",
      "target": 34962
    },
    {
      "buffer": 0,
      "byteLength": 170736,
      "byteOffset": 231976,
      "byteStride": 12,
      "name": "floatBufferViews",
      "target": 34962
    },
    {
      "buffer": 0,
      "byteLength": 47264,
      "byteOffset": 402712,
      "byteStride": 16,
      "name": "floatBufferViews",
      "target": 34962
    }
  ],
  "buffers": [
    {
      "byteLength": 449976,
      "uri": "scene.bin"
    }
  ],
  "extensionsRequired": [
    "KHR_materials_pbrSpecularGlossiness"
  ],
  "extensionsUsed": [
    "KHR_materials_pbrSpecularGlossiness"
  ],
  "images": [
    {
      "uri": "textures/Mat.1_diffuse.jpeg"
    },
    {
      "uri": "textures/Mat.1_specularGlossiness.jpeg"
    },
    {
      "uri": "textures/Mat.1_normal.png"
    }
  ],
  "materials": [
    {
      "doubleSided": true,
      "extensions": {
        "KHR_materials_pbrSpecularGlossiness": {
          "diffuseFactor": [
            0.635294,
            0.556863,
            0.470588,
            1.0
          ],
          "glossinessFactor": 0.0475682846,
          "specularFactor": [
            0.05,
            0.05,
            0.05
          ]
        }
      },
      "name": "material"
    },
    {
      "doubleSided": true,
      "extensions": {
        "KHR_materials_pbrSpecularGlossiness": {
          "diffuseFactor": [
            1.0,
            1.0,
            1.0,
            1.0
          ],
          "diffuseTexture": {
            "index": 0
          },
          "glossinessFactor": 0.319319119,
          "specularFactor": [
            0.05,
            0.05,
            0.05
          ],
          "specularGlossinessTexture": {
            "index": 1
          }
        }
      },
      "name": "Mat.1",
      "normalTexture": {
        "index": 2
      }
    }
  ],
  "meshes": [
    {
      "name": "Hair_Mat_0",
      "primitives": [
        {
          "attributes": {
            "NORMAL": 1,
            "POSITION": 0,
            "TEXCOORD_0": 2
          },
          "indices": 3,
          "material": 0,
          "mode": 4
        }
      ]
    },
    {
      "name": "body_Mat.1_0",
      "primitives": [
        {
          "attributes": {
            "NORMAL": 5,
            "POSITION": 4,
            "TANGENT": 6,
            "TEXCOORD_0": 7,
            "TEXCOORD_1": 8,
            "TEXCOORD_2": 9
          },
          "indices": 10,
          "material": 1,
          "mode": 4
        }
      ]
    }
  ],
  "nodes": [
    {
      "children": [
        1
      ],
      "matrix": [
        1.0,
        0.0,
        0.0,
        0.0,
        0.0,
        2.220446049250313e-16,
        -1.0,
        0.0,
        0.0,
        1.0,
        2.220446049250313e-16,
        0.0,
        0.0,
        0.0,
        0.0,
        1.0
      ],
      "name": "Sketchfab_model"
    },
    {
      "children": [
        2
      ],
      "matrix": [
        1.0,
        0.0,
        0.0,
        0.0,
        0.0,
        0.0,
        1.0,
        0.0,
        0.0,
        -1.0,
        0.0,
        0.0,
        0.0,
        0.0,
        0.0,
        1.0
      ],
      "name": "42fdab7cabec46db98bfda8dcae625b5.fbx"
    },
    {
      "children": [
        3,
        5
      ],
      "name": "RootNode"
    },
    {
      "children": [
        4
      ],
      "name": "Hair"
    },
    {
      "mesh": 0,
      "name": "Hair_Mat_0"
    },
    {
      "children": [
        6
      ],
      "matrix": [
        0.009999999776482582,
        0.0,
        0.0,
        0.0,
        0.0,
        0.009999999776482582,
        0.0,
        0.0,
        0.0,
        0.0,
        0.009999999776482582,
        0.0,
        0.0,
        -0.9037563800811768,
        -6.830257892608643,
        1.0
      ],
      "name": "body"
    },
    {
      "mesh": 1,
      "name": "body_Mat.1_0"
    }
  ],
  "samplers": [
    {
      "magFilter": 9729,
      "minFilter": 9987,
      "wrapS": 10497,
      "wrapT": 10497
    }
  ],
  "scene": 0,
  "scenes": [
    {
      "name": "Sketchfab_Scene",
      "nodes": [
        0
      ]
    }
  ],
  "textures": [
    {
      "sampler": 0,
      "source": 0
    },
    {
      "sampler": 0,
      "source": 1
    },
    {
      "sampler": 0,
      "source": 2
    }
  ]
}
